HIERARCHY
ROOT Hip
{
  OFFSET 0.000000 0.000000 0.000000
  CHANNELS 6 Xposition Yposition Zposition Zrotation Xrotation Yrotation
  JOINT RHip
  {
    OFFSET 0.000000 0.000000 0.000000
    CHANNELS 3 Xposition Yposition Zposition
    End Site
    {
      OFFSET 0.000000 0.100000 0.000000
    }
  }
  JOINT RKnee
  {
    OFFSET 0.000000 0.000000 0.000000
    CHANNELS 3 Xposition Yposition Zposition
    End Site
    {
      OFFSET 0.000000 0.100000 0.000000
    }
  }
  JOINT RFoot
  {
    OFFSET 0.000000 0.000000 0.000000
    CHANNELS 3 Xposition Yposition Zposition
    End Site
    {
      OFFSET 0.000000 0.100000 0.000000
    }
  }
  JOINT LHip
  {
    OFFSET 0.000000 0.000000 0.000000
    CHANNELS 3 Xposition Yposition Zposition
    End Site
    {
      OFFSET 0.000000 0.100000 0.000000
    }
  }
  JOINT LKnee
  {
    OFFSET 0.000000 0.000000 0.000000
    CHANNELS 3 Xposition Yposition Zposition
    End Site
    {
      OFFSET 0.000000 0.100000 0.000000
    }
  }
  JOINT LFoot
  {
    OFFSET 0.000000 0.000000 0.000000
    CHANNELS 3 Xposition Yposition Zposition
    End Site
    {
      OFFSET 0.000000 0.100000 0.000000
    }
  }
  JOINT Spine
  {
    OFFSET 0.000000 0.000000 0.000000
    CHANNELS 3 Xposition Yposition Zposition
    End Site
    {
      OFFSET 0.000000 0.100000 0.000000
    }
  }
  JOINT Thorax
  {
    OFFSET 0.000000 0.000000 0.000000
    CHANNELS 3 Xposition Yposition Zposition
    End Site
    {
      OFFSET 0.000000 0.100000 0.000000
    }
  }
  JOINT Nose
  {
    OFFSET 0.000000 0.000000 0.000000
    CHANNELS 3 Xposition Yposition Zposition
    End Site
    {
      OFFSET 0.000000 0.100000 0.000000
    }
  }
  JOINT Head
  {
    OFFSET 0.000000 0.000000 0.000000
    CHANNELS 3 Xposition Yposition Zposition
    End Site
    {
      OFFSET 0.000000 0.100000 0.000000
    }
  }
  JOINT LShoulder
  {
    OFFSET 0.000000 0.000000 0.000000
    CHANNELS 3 Xposition Yposition Zposition
    End Site
    {
      OFFSET 0.000000 0.100000 0.000000
    }
  }
  JOINT LElbow
  {
    OFFSET 0.000000 0.000000 0.000000
    CHANNELS 3 Xposition Yposition Zposition
    End Site
    {
      OFFSET 0.000000 0.100000 0.000000
    }
  }
  JOINT LWrist
  {
    OFFSET 0.000000 0.000000 0.000000
    CHANNELS 3 Xposition Yposition Zposition
    End Site
    {
      OFFSET 0.000000 0.100000 0.000000
    }
  }
  JOINT RShoulder
  {
    OFFSET 0.000000 0.000000 0.000000
    CHANNELS 3 Xposition Yposition Zposition
    End Site
    {
      OFFSET 0.000000 0.100000 0.000000
    }
  }
  JOINT RElbow
  {
    OFFSET 0.000000 0.000000 0.000000
    CHANNELS 3 Xposition Yposition Zposition
    End Site
    {
      OFFSET 0.000000 0.100000 0.000000
    }
  }
  JOINT RWrist
  {
    OFFSET 0.000000 0.000000 0.000000
    CHANNELS 3 Xposition Yposition Zposition
    End Site
    {
      OFFSET 0.000000 0.100000 0.000000
    }
  }
}
MOTION
Frames: 11
Frame Time: 0.033333
-0.144594 1.019892 -0.000008 0.000000 0.000000 0.000000 0.142427 0.027716 0.035751 0.293133 -0.271826 -0.442603 0.235000 -0.694139 -0.564654 -0.142437 -0.027653 -0.035722 -0.117767 -0.369375 -0.594227 -0.052641 -0.800444 -0.651959 -0.010171 0.215024 -0.129156 -0.017025 0.491612 -0.296047 0.107937 0.462285 -0.421880 0.027575 0.587687 -0.413973 -0.155117 0.433095 -0.374993 0.017796 0.422890 -0.629408 0.129234 0.596261 -0.510170 0.136553 0.504613 -0.208747 0.386345 0.526808 -0.261953 0.255102 0.603912 -0.515361
-0.146222 1.018502 -0.000006 0.000000 0.000000 0.000000 0.142002 0.028043 0.036448 0.297151 -0.268153 -0.439801 0.237074 -0.692638 -0.554499 -0.142012 -0.027980 -0.036423 -0.117975 -0.368000 -0.597046 -0.055084 -0.802107 -0.649375 -0.009699 0.215027 -0.127270 -0.015019 0.492684 -0.292829 0.112851 0.463038 -0.417449 0.033971 0.589283 -0.412033 -0.153576 0.433825 -0.373377 0.018347 0.432485 -0.630283 0.120068 0.614719 -0.502456 0.137358 0.507035 -0.203580 0.384721 0.538746 -0.255486 0.246838 0.619963 -0.505109
-0.147943 1.016400 -0.000003 0.000000 0.000000 0.000000 0.141484 0.028207 0.037226 0.300874 -0.264127 -0.437780 0.238900 -0.690989 -0.549019 -0.141494 -0.028144 -0.037206 -0.118160 -0.365355 -0.599207 -0.057429 -0.803290 -0.648206 -0.008874 0.214323 -0.126463 -0.012470 0.492124 -0.291959 0.117987 0.461353 -0.414971 0.040039 0.588300 -0.411981 -0.151499 0.432868 -0.374182 0.020505 0.438384 -0.634051 0.112208 0.628476 -0.501363 0.139046 0.507366 -0.200812 0.383603 0.547656 -0.254223 0.239568 0.631583 -0.499730
-0.149674 1.013205 0.000000 0.000000 0.000000 0.000000 0.140907 0.028269 0.037971 0.304457 -0.260244 -0.436687 0.240753 -0.689123 -0.546229 -0.140917 -0.028208 -0.037958 -0.117990 -0.362206 -0.601128 -0.059419 -0.803771 -0.647673 -0.007667 0.212712 -0.126948 -0.009385 0.489672 -0.293847 0.123407 0.457184 -0.415210 0.045887 0.584686 -0.414652 -0.149174 0.430151 -0.377532 0.023474 0.440040 -0.640315 0.105513 0.636578 -0.506107 0.141650 0.505504 -0.201038 0.382573 0.552826 -0.257916 0.232956 0.638558 -0.499224
-0.151398 1.008134 0.000004 0.000000 0.000000 0.000000 0.140391 0.028273 0.038563 0.307761 -0.256912 -0.436433 0.242905 -0.686859 -0.545882 -0.140400 -0.028212 -0.038556 -0.117452 -0.359175 -0.603328 -0.060776 -0.803592 -0.649057 -0.006155 0.210562 -0.128115 -0.005803 0.485827 -0.297424 0.128789 0.451132 -0.417408 0.051665 0.579136 -0.419423 -0.146754 0.426323 -0.381899 0.026303 0.438019 -0.646527 0.100390 0.639271 -0.513057 0.145289 0.502116 -0.203384 0.382157 0.554420 -0.264275 0.227530 0.641527 -0.502804
-0.153426 1.000666 0.000007 0.000000 0.000000 0.000000 0.139982 0.028276 0.039066 0.310632 -0.253988 -0.437006 0.245671 -0.684185 -0.550058 -0.139990 -0.028216 -0.039065 -0.116420 -0.356382 -0.605857 -0.061205 -0.803169 -0.655106 -0.004514 0.208229 -0.129338 -0.001969 0.481095 -0.301562 0.133781 0.443769 -0.420787 0.057033 0.572184 -0.425592 -0.144451 0.421849 -0.385944 0.027873 0.432926 -0.651093 0.097515 0.635923 -0.522490 0.149795 0.497669 -0.206781 0.382754 0.552642 -0.271783 0.223841 0.640088 -0.510469
-0.155936 0.991761 0.000008 0.000000 0.000000 0.000000 0.139680 0.028425 0.039557 0.313031 -0.250752 -0.438416 0.249122 -0.681162 -0.560671 -0.139689 -0.028365 -0.039559 -0.114820 -0.353601 -0.608224 -0.060730 -0.802889 -0.667192 -0.002899 0.206052 -0.130058 0.001767 0.476149 -0.304951 0.138364 0.435838 -0.423906 0.061740 0.564569 -0.431657 -0.142605 0.416940 -0.388256 0.026827 0.424975 -0.653165 0.097869 0.625929 -0.536650 0.154753 0.492600 -0.210039 0.384355 0.548177 -0.279929 0.222618 0.633879 -0.522026
-0.158798 0.982421 0.000009 0.000000 0.000000 0.000000 0.139500 0.028902 0.039922 0.314731 -0.247005 -0.440900 0.252985 -0.678473 -0.579127 -0.139509 -0.028843 -0.039925 -0.112731 -0.350390 -0.609546 -0.059691 -0.802926 -0.684313 -0.001252 0.204218 -0.130300 0.005368 0.471425 -0.307275 0.142446 0.427884 -0.425840 0.065824 0.556947 -0.436587 -0.141218 0.411579 -0.388489 0.022949 0.414249 -0.653544 0.101669 0.609743 -0.556037 0.159837 0.487327 -0.213052 0.387183 0.541684 -0.289700 0.225279 0.623028 -0.537347
-0.162191 0.972929 0.000008 0.000000 0.000000 0.000000 0.139372 0.029789 0.040104 0.315743 -0.243637 -0.444853 0.257075 -0.677405 -0.603644 -0.139381 -0.029730 -0.040106 -0.110144 -0.346480 -0.609528 -0.058177 -0.803587 -0.704686 0.000490 0.202520 -0.130665 0.008913 0.466475 -0.310010 0.145887 0.419621 -0.427914 0.069469 0.549013 -0.441674 -0.139923 0.405444 -0.388345 0.018340 0.400382 -0.655452 0.107643 0.587316 -0.579045 0.164859 0.481848 -0.217383 0.391768 0.532766 -0.303486 0.232548 0.606980 -0.558120
-0.166372 0.964046 0.000007 0.000000 0.000000 0.000000 0.139025 0.030936 0.040229 0.316497 -0.241302 -0.450719 0.261712 -0.678284 -0.631917 -0.139034 -0.030877 -0.040229 -0.107435 -0.341939 -0.608696 -0.055825 -0.804933 -0.728110 0.002038 0.200690 -0.131633 0.011965 0.460813 -0.314811 0.148530 0.410430 -0.431933 0.072626 0.540214 -0.448692 -0.138486 0.398288 -0.389781 0.016459 0.382910 -0.659434 0.114759 0.558476 -0.602045 0.169322 0.476001 -0.224356 0.397866 0.520598 -0.321585 0.243474 0.585215 -0.584610
-0.171138 0.956123 0.000005 0.000000 0.000000 0.000000 0.138265 0.031905 0.040282 0.316982 -0.239920 -0.458116 0.267126 -0.680347 -0.665391 -0.138275 -0.031846 -0.040278 -0.105519 -0.337127 -0.607011 -0.052387 -0.806467 -0.757302 0.003197 0.198552 -0.133952 0.014101 0.454306 -0.322861 0.150375 0.399838 -0.438881 0.075390 0.530246 -0.458427 -0.136844 0.389854 -0.394212 0.018826 0.361020 -0.664244 0.123282 0.523788 -0.624566 0.172681 0.469506 -0.234472 0.404659 0.504223 -0.341612 0.256537 0.557956 -0.612893
